<svg xmlns="http://www.w3.org/2000/svg" viewBox="0 0 416.27 127.99"><defs><style>.cls-1{fill:#6c35de;}.cls-2{fill:#fff;}</style></defs><g id="Layer_2" data-name="Layer 2"><g id="Layer_1-2" data-name="Layer 1"><path class="cls-1" d="M20.77,22.84a2.5,2.5,0,1,0-1.68-4.35h0a2.5,2.5,0,0,0,1.68,4.35Z"/><path class="cls-1" d="M108.66,18.57A63.39,63.39,0,0,0,27,11.82a2.5,2.5,0,1,0,2.91,4.06,58.4,58.4,0,1,1,5.9,98.75,2.51,2.51,0,0,0-1.86-.22L6.09,121.93l7.59-27.08a2.45,2.45,0,0,0-.25-1.94,58.43,58.43,0,0,1,2.88-63.47,2.5,2.5,0,0,0-4.06-2.91,63.43,63.43,0,0,0-3.67,68L.09,124.82A2.5,2.5,0,0,0,2.5,128a2.37,2.37,0,0,0,.65-.09l31.12-8.4A63.41,63.41,0,0,0,108.66,18.57Z"/><path class="cls-1" d="M15.1,113a2.53,2.53,0,0,0,2.43.65l18-4.87,2.65,1.46a53.4,53.4,0,0,0,25.65,6.55h1.31a51.29,51.29,0,0,0,44.12-25.32,53.4,53.4,0,1,0-91.52-1.1l1.62,2.75-4.89,17.44A2.52,2.52,0,0,0,15.1,113Z"/><path class="cls-2" d="M37,92.77c-6.13,0-11.11-5.62-11.11-12.54V45.13c0-6.92,5-12.55,11.11-12.55H92c6.13,0,11.11,5.63,11.11,12.55v35.1c0,6.92-5,12.54-11.11,12.54ZM34.1,87A5.93,5.93,0,0,0,37,87.8H92A5.94,5.94,0,0,0,94.89,87L75.79,65.43l-4.59,4.9a9.05,9.05,0,0,1-13.41,0l-4.59-4.9ZM98,83.49a8.62,8.62,0,0,0,.65-3.26V45.13A8.39,8.39,0,0,0,98,41.79L79,62ZM31,41.79a8.39,8.39,0,0,0-.69,3.34v35.1A8.62,8.62,0,0,0,31,83.49L50,62ZM60.87,66.73a4.91,4.91,0,0,0,3.63,1.58,4.86,4.86,0,0,0,3.61-1.57l26.7-28.47A5.92,5.92,0,0,0,92,37.56H37a5.92,5.92,0,0,0-2.81.71Z"/><path class="cls-2" d="M92,32.83c6,0,10.86,5.52,10.86,12.3v35.1C102.86,87,98,92.52,92,92.52H37c-6,0-10.86-5.51-10.86-12.29V45.13c0-6.78,4.87-12.3,10.86-12.3H92M37,37.31h0a6.29,6.29,0,0,0-3.22.9L60.69,66.9a5.2,5.2,0,0,0,7.61,0l26.92-28.7a6.29,6.29,0,0,0-3.22-.9H37M98.08,83.94a8.71,8.71,0,0,0,.83-3.71V45.13A8.53,8.53,0,0,0,98,41.35L78.68,62l19.4,21.95m-67.17,0L50.31,62,31,41.35a8.53,8.53,0,0,0-.87,3.78v35.1a8.71,8.71,0,0,0,.83,3.71M64.5,73.05A8.89,8.89,0,0,1,58,70.16l-4.78-5.1-19.48,22a6.32,6.32,0,0,0,3.27.94H92a6.32,6.32,0,0,0,3.27-.94l-19.48-22L71,70.16a8.84,8.84,0,0,1-6.51,2.89M92,32.33H37c-6.26,0-11.36,5.74-11.36,12.8v35.1c0,7,5.1,12.79,11.36,12.79H92c6.26,0,11.36-5.74,11.36-12.79V45.13c0-7.06-5.1-12.8-11.36-12.8Zm-57.41,6a5.6,5.6,0,0,1,2.4-.54H92a5.6,5.6,0,0,1,2.4.54L67.93,66.57a4.71,4.71,0,0,1-6.88,0L34.59,38.35ZM79.36,62,97.89,42.24a8.31,8.31,0,0,1,.52,2.89v35.1A8.18,8.18,0,0,1,97.92,83L79.36,62ZM31.07,83a8.18,8.18,0,0,1-.49-2.78V45.13a8.31,8.31,0,0,1,.52-2.89L49.63,62,31.07,83Zm3.43,4L53.2,65.8l4.41,4.7a9.3,9.3,0,0,0,13.77,0l4.41-4.7L94.49,87a5.67,5.67,0,0,1-2.48.58H37A5.68,5.68,0,0,1,34.5,87Z"/><path class="cls-1" d="M165.43,89.28a17.2,17.2,0,0,1-7.4-5.76,15.14,15.14,0,0,1-2.8-8.88h12a7.73,7.73,0,0,0,2.44,5.44,8.62,8.62,0,0,0,6,2,9.26,9.26,0,0,0,6.16-1.88,6.11,6.11,0,0,0,2.24-4.92,5.71,5.71,0,0,0-1.52-4.08,10.8,10.8,0,0,0-3.8-2.52,64.38,64.38,0,0,0-6.28-2,66.3,66.3,0,0,1-8.84-3.16,15.53,15.53,0,0,1-5.84-4.72,13.42,13.42,0,0,1-2.44-8.44,15.15,15.15,0,0,1,2.48-8.64,15.78,15.78,0,0,1,7-5.64,25.45,25.45,0,0,1,10.24-2q8.64,0,14,4.2a15.57,15.57,0,0,1,6,11.72H182.75a6.42,6.42,0,0,0-2.44-4.76,9.21,9.21,0,0,0-6-1.88A7.78,7.78,0,0,0,169,45a6.07,6.07,0,0,0-2,4.88,5,5,0,0,0,1.48,3.72,11.18,11.18,0,0,0,3.68,2.4,64.49,64.49,0,0,0,6.2,2.12,66.17,66.17,0,0,1,8.88,3.2,16,16,0,0,1,5.92,4.8,13.38,13.38,0,0,1,2.48,8.4,15.76,15.76,0,0,1-2.32,8.32,16.38,16.38,0,0,1-6.8,6.12A23.19,23.19,0,0,1,176,91.28,26.42,26.42,0,0,1,165.43,89.28Z"/><path class="cls-1" d="M266.27,34.88V90.72h-11.2V54.4l-15,36.32h-8.48l-15-36.32V90.72h-11.2V34.88h12.72L235.87,76.4l17.76-41.52Z"/><path class="cls-1" d="M286.07,89.28a17.2,17.2,0,0,1-7.4-5.76,15.14,15.14,0,0,1-2.8-8.88h12a7.73,7.73,0,0,0,2.44,5.44,8.62,8.62,0,0,0,6,2,9.26,9.26,0,0,0,6.16-1.88,6.11,6.11,0,0,0,2.24-4.92,5.71,5.71,0,0,0-1.52-4.08,10.8,10.8,0,0,0-3.8-2.52,64.38,64.38,0,0,0-6.28-2,66.3,66.3,0,0,1-8.84-3.16,15.45,15.45,0,0,1-5.84-4.72A13.42,13.42,0,0,1,276,50.32a15.15,15.15,0,0,1,2.48-8.64,15.78,15.78,0,0,1,7-5.64,25.45,25.45,0,0,1,10.24-2q8.64,0,14,4.2a15.57,15.57,0,0,1,6,11.72H303.39A6.42,6.42,0,0,0,301,45.24a9.21,9.21,0,0,0-6-1.88A7.78,7.78,0,0,0,289.67,45a6.07,6.07,0,0,0-2,4.88,5,5,0,0,0,1.48,3.72,11.18,11.18,0,0,0,3.68,2.4,64.49,64.49,0,0,0,6.2,2.12,66.17,66.17,0,0,1,8.88,3.2,16,16,0,0,1,5.92,4.8,13.38,13.38,0,0,1,2.48,8.4A15.76,15.76,0,0,1,314,82.88a16.38,16.38,0,0,1-6.8,6.12,23.19,23.19,0,0,1-10.64,2.28A26.42,26.42,0,0,1,286.07,89.28Z"/><path class="cls-1" d="M356.27,34.88V90.72h-11.2V34.88Z"/><path class="cls-1" d="M402.31,38.32a24.66,24.66,0,0,1,10.32,9.8,29.16,29.16,0,0,1,3.64,14.76,28.7,28.7,0,0,1-3.64,14.68,24.72,24.72,0,0,1-10.32,9.72,33.25,33.25,0,0,1-15.48,3.44H367.31V34.88h19.52A33.38,33.38,0,0,1,402.31,38.32ZM400,76.4q4.8-4.8,4.8-13.52T400,49.24q-4.8-4.92-13.6-4.92h-7.92V81.2h7.92Q395.22,81.2,400,76.4Z"/></g></g></svg>